<svg width="209" height="145" viewBox="0 0 209 145" fill="none" xmlns="http://www.w3.org/2000/svg">
<path d="M207.077 0.730468C179.373 39.7664 115.019 123.031 79.2357 143.802C73.2794 132.464 63.2974 111.901 56.4016 93.644C51.8623 97.3494 42.1306 100.563 37.8321 101.706C33.4717 95.1491 30.7317 85.1695 29.0706 74.7492C24.3775 72.3013 8.58106 83.9536 1.26948 90.0858C0.0726887 83.1356 17.8472 52.5508 26.8841 38.1272C38.2064 26.4288 151.731 8.32169 207.077 0.730468Z" fill="white"/>
<path d="M48.9799 67.2704C76.7607 50.7175 147.273 14.2356 207.077 0.730469M48.9799 67.2704C49.6761 74.0168 52.5599 83.4726 56.4016 93.644M48.9799 67.2704C42.1041 72.6774 38.6831 92.4805 37.8321 101.706M207.077 0.730469C179.373 39.7664 115.019 123.031 79.2357 143.802C73.2794 132.464 63.2974 111.901 56.4016 93.644M207.077 0.730469C151.731 8.32169 38.2064 26.4288 26.8841 38.1272M26.8841 38.1272C17.8472 52.5508 0.0726888 83.1356 1.26948 90.0858C8.58106 83.9536 24.3775 72.3013 29.0706 74.7492M26.8841 38.1272C26.5675 46.5733 26.8856 61.0425 29.0706 74.7492M37.8321 101.706C42.1306 100.563 51.8623 97.3494 56.4016 93.644M37.8321 101.706C33.4717 95.1491 30.7317 85.1695 29.0706 74.7492" stroke="#FF8989"/>
</svg>
