<svg width="346" height="177" viewBox="0 0 346 177" fill="none" xmlns="http://www.w3.org/2000/svg">
<path d="M290.187 155.688C289.774 155.483 289.345 155.22 288.901 154.903C271.812 144.554 236.345 125.907 221.289 128.344C212.018 144.816 203.157 163.343 197.571 176C154.879 158.195 55.7965 98.2674 1 1L338.543 46.9952C340.911 46.9687 343.092 47.238 345 47.875L338.543 46.9952C324.646 47.1506 304.287 57.4925 294.597 63.5C303.166 82.25 295.227 132.771 290.187 155.688Z" fill="white"/>
<path d="M1 1L345 47.875C331.895 43.5 305.938 56.4687 294.597 63.5M1 1L251.125 91.625M1 1L294.597 63.5M1 1C55.7965 98.2674 154.879 158.195 197.571 176C203.157 163.343 212.018 144.816 221.289 128.344M251.125 91.625C259.945 110.896 280.106 150.687 290.187 155.687M251.125 91.625C243.756 92.3018 232.237 108.891 221.289 128.344M290.187 155.687C295.227 132.771 303.166 82.25 294.597 63.5M290.187 155.687C273.656 145.531 236.734 125.844 221.289 128.344" stroke="#FF9E99"/>
</svg>
